<?xml version="1.0" encoding="UTF-8" standalone="no"?>
<svg
   xmlns:dc="http://purl.org/dc/elements/1.1/"
   xmlns:cc="http://creativecommons.org/ns#"
   xmlns:rdf="http://www.w3.org/1999/02/22-rdf-syntax-ns#"
   xmlns:svg="http://www.w3.org/2000/svg"
   xmlns="http://www.w3.org/2000/svg"
   xmlns:sodipodi="http://sodipodi.sourceforge.net/DTD/sodipodi-0.dtd"
   xmlns:inkscape="http://www.inkscape.org/namespaces/inkscape"
   aria-hidden="true"
   focusable="false"
   data-prefix="far"
   data-icon="tv-alt"
   class="svg-inline--fa fa-tv-alt fa-w-20"
   role="img"
   viewBox="0 0 640 640"
   version="1.1"
   id="svg80"
   sodipodi:docname="oscope.svg"
   inkscape:version="0.92.4 (5da689c313, 2019-01-14)"
   width="640"
   height="640"
   inkscape:export-filename="/home/gothack/workspace/qt/micsig/icon/oscope.16.png"
   inkscape:export-xdpi="2.4000001"
   inkscape:export-ydpi="2.4000001">
  <metadata
     id="metadata86">
    <rdf:RDF>
      <cc:Work
         rdf:about="">
        <dc:format>image/svg+xml</dc:format>
        <dc:type
           rdf:resource="http://purl.org/dc/dcmitype/StillImage" />
        <dc:title />
      </cc:Work>
    </rdf:RDF>
  </metadata>
  <defs
     id="defs84" />
  <sodipodi:namedview
     pagecolor="#ffffff"
     bordercolor="#666666"
     borderopacity="1"
     objecttolerance="10"
     gridtolerance="10"
     guidetolerance="10"
     inkscape:pageopacity="0"
     inkscape:pageshadow="2"
     inkscape:window-width="1920"
     inkscape:window-height="1009"
     id="namedview82"
     showgrid="false"
     inkscape:snap-bbox="true"
     inkscape:bbox-paths="true"
     inkscape:bbox-nodes="true"
     inkscape:snap-bbox-edge-midpoints="true"
     inkscape:snap-bbox-midpoints="true"
     inkscape:object-paths="true"
     inkscape:snap-intersection-paths="true"
     inkscape:snap-smooth-nodes="true"
     inkscape:snap-midpoints="true"
     inkscape:snap-object-midpoints="true"
     inkscape:snap-center="true"
     inkscape:zoom="1.578125"
     inkscape:cx="248.07921"
     inkscape:cy="332.0396"
     inkscape:window-x="0"
     inkscape:window-y="34"
     inkscape:window-maximized="1"
     inkscape:current-layer="svg80" />
  <g
     id="g168"
     transform="matrix(0.9375,0,0,0.9375,20,-40)">
    <path
       style="fill:currentColor"
       inkscape:connector-curvature="0"
       id="path78"
       d="M 528,592 H 112 a 16,16 0 0 0 -16,16 v 16 a 16,16 0 0 0 16,16 h 416 a 16,16 0 0 0 16,-16 V 608 A 16,16 0 0 0 528,592 Z M 592,128 H 48 A 48,48 0 0 0 0,176 v 320 a 48,48 0 0 0 48,48 h 544 a 48,48 0 0 0 48,-48 V 176 a 48,48 0 0 0 -48,-48 z m 0,368 H 48 V 176 h 544 z" />
    <path
       style="fill:#ff00ff;stroke-width:0.69999665"
       inkscape:connector-curvature="0"
       d="m 420.80059,492.23217 c -63.3637,0 -92.98756,-75.55764 -121.65942,-148.61629 -22.09189,-56.34274 -47.12378,-120.18243 -79.93962,-120.18243 -27.78987,0 -63.96569,57.32272 -79.88362,104.2995 A 11.199947,11.199947 0 0 1 125.5,334.96392 l -21.5039,-6.44697 A 11.199947,11.199947 0 0 1 96.590134,314.20901 C 109.68707,275.0862 153.51386,178.63366 219.20155,178.63366 c 63.3637,0 92.98756,75.55764 121.65942,148.61629 22.0919,56.34274 47.12378,120.18243 79.93962,120.18243 27.78987,0 63.9657,-57.32273 79.88362,-104.2995 a 11.199947,11.199947 0 0 1 13.81794,-7.23097 l 21.5039,6.44697 a 11.199947,11.199947 0 0 1 7.40596,14.30093 c -13.09694,39.12982 -56.92373,135.58236 -122.61142,135.58236 z"
       id="path136" />
  </g>
</svg>
